<svg width="512" height="512" x="0" y="0" viewBox="0 0 512 512">
    <path d="m437 75a256 256 0 0 0 -362 362 256.36 256.36 0 0 0 254.66 64.22 25 25 0 0 0 -14.37-47.89 206.12 206.12 0 0 1 -59.29 8.67c-113.59 0-206-92.41-206-206s92.41-206 206-206 206 92.41 206 206a205.07 205.07 0 0 1 -33.7 113 25 25 0 0 0 41.78 27.46 256.06 256.06 0 0 0 -33.08-321.46z" fill="#d90429" data-original="#000000"></path>
    <path d="m231 134v159a25 25 0 0 0 50 0v-159a25 25 0 0 0 -50 0z" fill="#d90429" data-original="#000000"></path>
    <path d="m256 403a25 25 0 1 1 25-25 25 25 0 0 1 -25 25z" fill="#d90429" data-original="#000000"></path>
</svg>